# xmcd
#
# Track frame offsets:
#	150
#	14580
#	31438
#	52407
#	68398
#	80406
#	98407
#	112760
#	126017
#	141859
#	156289
#	173147
#	194116
#	210107
#	222115
#	240116
#	254469
#	267726
#
# Disc length: 3780 seconds
#
# Revision: 1
# Processed by: cddbd v1.5.2PL0 Copyright (c) Steve Scherf et al.
# Submitted via: audiograbber 1.83.01
#
DISCID=f80ec212
DTITLE=Various Artist - PHMC0113
DYEAR=2013
DGENRE=Country
TTITLE0=Keith Urban and Miranda Lambert - We Were Us
TTITLE1=Eli Young Band - Drunk Last Night
TTITLE2=Zac Brown Band - Sweet Annie
TTITLE3=Danielle Bradbery - The Heart of Dixie
TTITLE4=Hunter Hayes - Everybody's Got Somebody But Me
TTITLE5=Jennifer Nettles - That Girl
TTITLE6=Lady Antebellum - Compass
TTITLE7=Toby Keith - Shut Up And Hold On
TTITLE8=Florida Georgia Line - Stay
TTITLE9=Keith Urban and Miranda Lambert - We Were Us (Vocals)
TTITLE10=Eli Young Band - Drunk Last Night (Vocals)
TTITLE11=Zac Brown Band - Sweet Annie (Vocals)
TTITLE12=Danielle Bradbery - The Heart of Dixie (Vocals)
TTITLE13=Hunter Hayes - Everybody's Got Somebody But Me (Vocals)
TTITLE14=Jennifer Nettles - That Girl (Vocals)
TTITLE15=Lady Antebellum - Compass (Vocals)
TTITLE16=Toby Keith - Shut Up And Hold On (Vocals)
TTITLE17=Florida Georgia Line - Stay (Vocals)
EXTD=Karaoke
EXTT0=
EXTT1=
EXTT2=
EXTT3=
EXTT4=
EXTT5=
EXTT6=
EXTT7=
EXTT8=
EXTT9=
EXTT10=
EXTT11=
EXTT12=
EXTT13=
EXTT14=
EXTT15=
EXTT16=
EXTT17=
PLAYORDER=
